# xmcd
#
# Track frame offsets: 
#        150
#        30536
#        50501
#        73817
#        112729
#        130987
#        158503
#        180335
#        201610
#        229565
#        242062
#        267056
#
# Disc length: 3859 seconds
#
# Revision: 0
# Processed by: cddbd v1.5.2PL0 Copyright (c) Steve Scherf et al.
# Submitted via: ExactAudioCopy v1.0b3
#
DISCID=9b0f110c
DTITLE=Grand Funk Railroad  - The Best Hits Collection  [CD 2)
DYEAR=2013
DGENRE=Hard Rock
TTITLE0=Comfort Me
TTITLE1=Feelin' Alright
TTITLE2=People Let's Stop The War 
TTITLE3=Loneliness
TTITLE4=Someone
TTITLE5=Freedom Is For Children
TTITLE6=Stop Lookin' Back
TTITLE7=Black Licorice
TTITLE8=The Railroad
TTITLE9=The Loco-Motion
TTITLE10=Carry Me Through
TTITLE11=Life
EXTD=
EXTT0=
EXTT1=
EXTT2=
EXTT3=
EXTT4=
EXTT5=
EXTT6=
EXTT7=
EXTT8=
EXTT9=
EXTT10=
EXTT11=
PLAYORDER=
